<?xml version="1.0"?><svg version="1.2" baseProfile="tiny-ps" viewBox="0 0 300 300" xmlns="http://www.w3.org/2000/svg" xmlns:xlink="http://www.w3.org/1999/xlink"><title>bimi</title><g><g fill="#fa9c3c" transform="matrix(.1 0 0 -.1 0 300)"><path d="M1468 2703c-2-5-2-272 0-595l2-588h11c12 0 1179 1170 1179 1182v8H1471l-3-7zm-440-80c-303-279-433-395-655-588l-34-30-6-410-6-410 7-115 8-115 46-35c50-38 41-31 450-398 154-138 284-252 287-252s5 541 5 1203v1202l-9 13-8 13-85-78zm440-1740c-2-318-1-593 1-611l3-33 507 5c278 3 553 5 611 6h105l-608 605c-334 333-610 605-612 605-3 0-6-260-7-577z"/></g><g fill="#f07348" transform="matrix(.1 0 0 -.1 0 300)"><path d="M1122 2378c-1-10-6-18-12-18-5 0-9-3-9-7 1-5 1-20 0-34l-1-26-47 4-48 4 15-11 15-12-18 6c-10 3-21 6-23 6-3 0-2 4 1 10l6 10-16-6-15-6-15 12-15 12v-23l-11 7c-13 7-76 16-134 18l-40 1-7 10-7 10 17 20c22 26-33-21-208-175-78-69-158-138-177-155l-34-30-6-410-6-410 7-115 8-115 46-35c50-38 41-31 451-399 155-139 284-251 287-249 2 3 3 481 1 1064-1 582-3 1051-5 1042zm730-73-9-18-14 9c-8 5-42 9-76 9l-62 1 7-11 6-10-15 11-14 11-75-4c-41-2-86-5-100-6l-25-2-3-387-2-388h8c14 0 672 653 672 667 0 6 16 30 35 53l35 42v35h-15c-8 0-15-4-15-9v-9l-12 8-13 8h-285v-20l-9 14-9 13-10-17zM1468 883c-2-318-1-593 1-611l3-33 507 5c278 3 553 5 611 6h105l-608 605c-334 333-610 605-612 605-3 0-6-260-7-577z"/></g><g fill="#e34951" transform="matrix(.1 0 0 -.1 0 300)"><path d="m1484 1949-9-14-3-209-4-208 10 3c5 2 80 71 165 153l156 149-5 9c-3 4-9 6-13 4l-7-5v22c1 12 5 25 11 29 26 19-41 34-120 28-33-3-78 7-110 24l-30 16-4-11-3-10-12 17-13 17-9-14zm-366-82c-5-10-8-29-8-42v-24l-22-15-21-15-19 10-18 10v-18l-27 3c-16 2-49 5-75 7l-48 5 5-9 5-8-31 9c-18 5-35 8-39 5-11-7-81-7-155 0l-70 6-3 10c-2 5-13 9-25 9h-22l14-9 13-9-42-4-41-4-9 16-9 15-1-17v-18h-10c-6 0-18 4-28 9-9 6-29 12-43 15l-27 6-7 22-7 23-8-50-8-50-1-320c-1-176 2-356 5-400l7-80 45-35c50-38 42-31 451-399 155-139 284-251 287-249 2 3 3 367 2 809l-3 804-7-18zm350-984c-2-318-1-593 1-611l3-33 507 5c278 3 553 5 611 6h105l-608 605c-334 333-610 605-612 605-3 0-6-260-7-577z"/></g><g fill="#c82561" transform="matrix(.1 0 0 -.1 0 300)"><path d="M332 1315c-1-110 1-236 4-280l7-80 45-35c50-38 42-31 450-397 154-139 284-253 287-253s5 255 5 566v565l-9-6c-5-3-13-30-16-60l-7-55h-29c-15 0-30-4-34-10l-6-9-26 12-26 12-5-13-4-12-18 10c-11 6-23 9-27 8-5-2-19 7-32 19l-24 23-16-13-15-12 7 12 7 12-20-2c-11-1-20-5-20-10v-9l-17 13-17 14 7-11 7-12-22-5c-12-3-26-3-32 0-5 4-24 8-41 10l-30 3 13-9 14-8-15-6-15-6-6 15-6 15-20-11-20-11v17h-84l-84-1 5 8 4 7-34-4-35-5-20 22-21 22-4 80-3 80-2-200zm1146 138 12-5v-18c0-10-4-20-10-22l-10-3V239l508 5c279 3 554 5 612 6h105l-608 605c-334 333-611 605-615 604-4 0-1-3 6-6zm-568-159v-15l10 6 10 6-5 10c-9 14-15 11-15-7z"/></g><g fill="#9d1e77" transform="matrix(.1 0 0 -.1 0 300)"><path d="M1830 1103c13-18 25-33 27-33 8 0-17 38-33 51l-18 14 24-32zm54-61 19-22-7-7-7-7 23-13 23-13-20 2-20 2-43-21-43-22-57 4c-31 2-94 7-140 10l-84 5-29 15-28 15-3-342c-2-189-1-358 1-376l3-33 606 6c333 3 607 7 609 8 4 4-714 718-777 772-25 22-36 30-26 17zm-766-100c-3-35-8-66-11-68-3-3-83-7-178-9-96-1-174-4-174-5s-25-3-55-5c-51-3-169-14-194-18l-11-2 3 13 2 13-11-7-12-7 39-36c270-245 606-542 610-539 2 3 3 169 2 369l-3 364-7-63z"/></g><g fill="#711d86" transform="matrix(.1 0 0 -.1 0 300)"><path d="M2198 734c17-22 38-46 46-53l15-13-12-20c-7-11-26-25-43-32l-30-13-98 1-97 2-7 9-7 10-47 1-48 1v-9c0-4-5-8-11-8h-10l7 13 8 12-17-14-17-13v23l-17-9-18-9-80-1c-44 0-82-1-85-2-3-2-8-2-12-1-5 0-8-4-8-10v-10l-11 7-11 7-9-14-9-14v27l-13-10c-7-6-23-10-35-9l-22 1-1 16-1 15-5-15c-3-8-9-17-14-20l-8-5-1-135c-1-74-1-150-1-168l1-33 607 6c334 3 608 7 609 8 2 2-114 120-258 262-144 143-247 242-230 219zM1117 605l-7-80-10-3c-6-2-10-10-10-18v-14l-12-1c-7 0-32-2-55-4l-43-3-6 9-5 9-30-5-30-5-20 11c-48 25-22-5 102-115 72-65 132-116 135-113 2 2 3 96 2 208l-3 204-8-80z"/></g></g></svg>